<svg width="25" height="28" fill="none" xmlns="http://www.w3.org/2000/svg"><g clip-path="url(#clip0_10_219)"><path d="M24.514 5.228c-.003-1.347-.784-2.025-2.166-1.99-.469.011-.572.19-.561.592.02.68.03 1.363-.005 2.043-.056 1.102-.732 1.788-1.86 1.874-.596.046-1.202.043-1.797.003-1.21-.081-1.89-.791-1.917-1.968a33.111 33.111 0 01.003-1.968c.017-.422-.131-.573-.578-.57-2.087.019-4.175.019-6.26 0-.474-.005-.566.192-.553.588.023.68.02 1.364.003 2.044-.025 1.029-.639 1.728-1.694 1.844a11.51 11.51 0 01-1.953.03c-1.187-.068-1.848-.748-1.89-1.904a29.348 29.348 0 010-2.043c.017-.43-.156-.554-.592-.562C1.274 3.211.52 3.9.52 5.304c-.003 6.714-.003 13.425 0 20.14 0 1.446.645 2.08 2.138 2.083 6.576.006 13.148.006 19.723 0 1.505 0 2.133-.62 2.133-2.081.005-3.356 0-6.714 0-10.07.003-3.385.008-6.768 0-10.148zM3.253 10.001c-.003-.35.153-.491.516-.491 1.535.008 3.07.008 4.602.003.33 0 .458.132.455.453-.011 1.207-.014 2.416.003 3.623.005.4-.218.445-.542.443-.753-.008-1.507-.003-2.263-.003-.754 0-1.51-.01-2.263.005-.366.008-.514-.127-.511-.483.014-1.185.011-2.367.003-3.55zm5.579 14.335c.005.386-.126.54-.533.535a244.033 244.033 0 00-4.446 0c-.433.005-.609-.14-.603-.567.017-1.158.014-2.314.003-3.472-.003-.354.142-.494.508-.486.753.016 1.507.006 2.263.006.754 0 1.51.013 2.263-.006.397-.01.553.119.547.518a102.87 102.87 0 00-.002 3.472zM8.2 19.463c-.729-.03-1.46-.008-2.191-.008-.703 0-1.41-.021-2.113.008-.457.02-.661-.102-.65-.585a86.66 86.66 0 00.003-3.407c-.009-.438.176-.56.603-.554 1.46.02 2.922.027 4.381-.002.508-.011.609.189.6.623-.022 1.11-.03 2.222.003 3.331.011.481-.173.613-.636.594zm2.07-9.95c1.488.008 2.976.01 4.463-.003.402-.003.556.14.55.532-.017 1.16-.02 2.321 0 3.482.006.413-.184.516-.566.508-.757-.017-1.513-.006-2.27-.006-.73 0-1.462-.01-2.19.006-.369.008-.505-.127-.503-.486.014-1.185.014-2.373 0-3.558-.005-.373.165-.478.517-.475zm-.518 5.936c-.006-.383.12-.534.536-.53 1.484.02 2.969.017 4.457 0 .413-.005.544.15.538.533a145.205 145.205 0 000 3.48c.006.386-.131.54-.541.529-.757-.022-1.51-.006-2.266-.006-.704 0-1.407-.013-2.11.006-.408.013-.626-.07-.614-.532a96.415 96.415 0 000-3.48zm5.537 8.817c.011.464-.165.616-.636.61-1.435-.021-2.87-.016-4.307-.003-.427.006-.608-.116-.597-.558a77.02 77.02 0 000-3.407c-.009-.432.15-.578.586-.562.728.024 1.46.008 2.19.008.704 0 1.41.02 2.114-.008.457-.016.658.108.647.589a66.304 66.304 0 00.003 3.331zm.91-14.219c-.006-.386.134-.543.541-.537 1.485.013 2.967.013 4.452 0 .418-.003.616.121.608.561-.02 1.159-.014 2.317-.003 3.475.003.356-.14.494-.508.486-.781-.014-1.563-.006-2.341-.006-.704 0-1.407-.019-2.108.008-.454.017-.655-.108-.641-.588a91.695 91.695 0 000-3.399zm5.596 14.338c.002.364-.176.483-.525.483a655.305 655.305 0 00-4.608 0c-.33 0-.463-.138-.46-.456.008-1.21.01-2.416 0-3.626-.003-.402.24-.437.555-.434.753.005 1.51.002 2.263.002.754 0 1.51.011 2.264-.002.365-.009.513.126.508.485-.009 1.18-.009 2.365.003 3.548zm-.645-4.924c-.729-.027-1.457-.008-2.186-.008-.753 0-1.51-.014-2.263.002-.368.008-.508-.13-.502-.486a136.19 136.19 0 00-.003-3.547c-.006-.413.184-.508.566-.505 1.482.014 2.964.016 4.446-.002.441-.006.598.14.59.564a81.121 81.121 0 00.002 3.396c.014.491-.2.602-.65.586zM6.158 6.829a1.824 1.824 0 001.728-1.741c.022-.478.002-.959.002-1.436 0-.454.017-.907-.002-1.361A1.815 1.815 0 006.175.536c-.94-.067-1.792.559-1.92 1.517a12.484 12.484 0 00-.003 3.243c.12.958.968 1.592 1.906 1.533zm12.782.003c1.016.038 1.837-.73 1.91-1.812.027-.426.005-.855.005-1.285h-.003c0-.478.03-.96-.006-1.436-.08-1.037-.887-1.779-1.875-1.765-.99.013-1.786.774-1.825 1.811-.034.88-.03 1.766 0 2.646.033 1.047.792 1.803 1.794 1.84z" fill="#F0F0F0"/></g><defs><clipPath id="clip0_10_219"><path fill="#fff" transform="translate(.518 .531)" d="M0 0h24v27H0z"/></clipPath></defs></svg>