<svg width="33" height="25" fill="none" xmlns="http://www.w3.org/2000/svg"><g clip-path="url(#clip0_61_341)"><path d="M16.509 6.768A6.239 6.239 0 0010.277 13a6.237 6.237 0 006.232 6.23A6.236 6.236 0 0022.738 13a6.235 6.235 0 00-6.23-6.232zm0 10.086A3.857 3.857 0 0112.655 13a3.857 3.857 0 013.854-3.854A3.857 3.857 0 0120.362 13a3.857 3.857 0 01-3.853 3.854zM21.602 1H11.415a6.915 6.915 0 00-6.906 6.906v10.188A6.915 6.915 0 0011.415 25h10.187a6.915 6.915 0 006.907-6.906V7.906A6.913 6.913 0 0021.602 1zm4.53 17.094a4.535 4.535 0 01-4.53 4.528H11.415a4.533 4.533 0 01-4.528-4.528V7.906a4.533 4.533 0 014.528-4.528h10.187a4.533 4.533 0 014.528 4.528v10.188h.003zM22.826 4.968a1.632 1.632 0 000 3.261c.898 0 1.631-.73 1.631-1.63 0-.9-.733-1.631-1.63-1.631z" fill="#1B1A1A"/></g><defs><clipPath id="clip0_61_341"><path fill="#fff" transform="translate(4.509 1)" d="M0 0h24v24H0z"/></clipPath></defs></svg>