<svg width="33" height="25" fill="none" xmlns="http://www.w3.org/2000/svg"><g clip-path="url(#clip0_61_331)"><path d="M28.872 5.557a9.882 9.882 0 01-2.827.776 4.931 4.931 0 002.164-2.724 9.9 9.9 0 01-3.127 1.196A4.913 4.913 0 0021.49 3.25a4.923 4.923 0 00-4.925 4.923c0 .387.044.762.126 1.122A13.968 13.968 0 016.543 4.15a4.919 4.919 0 00-.667 2.476c0 1.709.87 3.215 2.189 4.098a4.876 4.876 0 01-2.23-.617v.063a4.926 4.926 0 003.95 4.827 4.918 4.918 0 01-2.222.085 4.929 4.929 0 004.596 3.42 9.874 9.874 0 01-6.113 2.106 9.78 9.78 0 01-1.174-.069 13.947 13.947 0 007.548 2.211c9.056 0 14.009-7.501 14.009-14.007 0-.213-.006-.425-.014-.636a9.978 9.978 0 002.457-2.55z" fill="#1B1A1A"/></g><defs><clipPath id="clip0_61_331"><path fill="#fff" transform="translate(4.872 1)" d="M0 0h24v24H0z"/></clipPath></defs></svg>